<mxfile host="app.diagrams.net" modified="2020-06-10T09:07:04.618Z" agent="5.0 (Windows NT 10.0; WOW64) AppleWebKit/537.36 (KHTML, like Gecko) Chrome/75.0.3770.100 Safari/537.36" etag="bAN0hySKlWxtPlV1gv7j" version="13.2.1" type="github">
  <diagram name="Page-1" id="e7e014a7-5840-1c2e-5031-d8a46d1fe8dd">
    <mxGraphModel dx="1422" dy="1537" grid="1" gridSize="10" guides="1" tooltips="1" connect="1" arrows="1" fold="1" page="1" pageScale="1" pageWidth="1169" pageHeight="826" background="#ffffff" math="0" shadow="0">
      <root>
        <mxCell id="0" />
        <mxCell id="1" parent="0" />
        <mxCell id="xZ-QIQwsPO3p9iyDY6K0-41" value="frame" style="shape=umlFrame;whiteSpace=wrap;html=1;" parent="1" vertex="1">
          <mxGeometry x="487.5" y="20" width="250" height="260" as="geometry" />
        </mxCell>
        <mxCell id="xZ-QIQwsPO3p9iyDY6K0-54" value="卡片系统" style="ellipse;whiteSpace=wrap;html=1;" parent="1" vertex="1">
          <mxGeometry x="557.5" y="40" width="100" height="40" as="geometry" />
        </mxCell>
        <mxCell id="xZ-QIQwsPO3p9iyDY6K0-66" value="学生信息系统" style="ellipse;whiteSpace=wrap;html=1;" parent="1" vertex="1">
          <mxGeometry x="565" y="90" width="100" height="50" as="geometry" />
        </mxCell>
        <mxCell id="xZ-QIQwsPO3p9iyDY6K0-69" value="商家系统" style="ellipse;whiteSpace=wrap;html=1;" parent="1" vertex="1">
          <mxGeometry x="555" y="150" width="115" height="40" as="geometry" />
        </mxCell>
        <mxCell id="xZ-QIQwsPO3p9iyDY6K0-105" style="edgeStyle=none;rounded=1;orthogonalLoop=1;jettySize=auto;html=1;exitX=0;exitY=0.3333333333333333;exitDx=0;exitDy=0;exitPerimeter=0;" parent="1" source="xZ-QIQwsPO3p9iyDY6K0-70" target="xZ-QIQwsPO3p9iyDY6K0-66" edge="1">
          <mxGeometry relative="1" as="geometry">
            <mxPoint x="1037.5" y="223" as="sourcePoint" />
          </mxGeometry>
        </mxCell>
        <mxCell id="xZ-QIQwsPO3p9iyDY6K0-106" style="edgeStyle=none;rounded=1;orthogonalLoop=1;jettySize=auto;html=1;exitX=0;exitY=0.3333333333333333;exitDx=0;exitDy=0;exitPerimeter=0;entryX=1.021;entryY=0.614;entryDx=0;entryDy=0;entryPerimeter=0;" parent="1" source="xZ-QIQwsPO3p9iyDY6K0-70" target="xZ-QIQwsPO3p9iyDY6K0-69" edge="1">
          <mxGeometry relative="1" as="geometry" />
        </mxCell>
        <mxCell id="xZ-QIQwsPO3p9iyDY6K0-108" style="edgeStyle=none;rounded=1;orthogonalLoop=1;jettySize=auto;html=1;exitX=0;exitY=0.3333333333333333;exitDx=0;exitDy=0;exitPerimeter=0;entryX=1;entryY=0.5;entryDx=0;entryDy=0;" parent="1" source="xZ-QIQwsPO3p9iyDY6K0-70" target="xZ-QIQwsPO3p9iyDY6K0-98" edge="1">
          <mxGeometry relative="1" as="geometry" />
        </mxCell>
        <mxCell id="xZ-QIQwsPO3p9iyDY6K0-134" style="edgeStyle=none;rounded=1;orthogonalLoop=1;jettySize=auto;html=1;exitX=0;exitY=0.3333333333333333;exitDx=0;exitDy=0;exitPerimeter=0;entryX=1;entryY=0.5;entryDx=0;entryDy=0;" parent="1" source="xZ-QIQwsPO3p9iyDY6K0-70" target="xZ-QIQwsPO3p9iyDY6K0-54" edge="1">
          <mxGeometry relative="1" as="geometry" />
        </mxCell>
        <mxCell id="xZ-QIQwsPO3p9iyDY6K0-70" value="Actor" style="shape=umlActor;verticalLabelPosition=bottom;labelBackgroundColor=#ffffff;verticalAlign=top;html=1;" parent="1" vertex="1">
          <mxGeometry x="867.5" y="50" width="40" height="70" as="geometry" />
        </mxCell>
        <mxCell id="xZ-QIQwsPO3p9iyDY6K0-96" value="管理员" style="text;html=1;align=center;verticalAlign=middle;resizable=0;points=[];autosize=1;" parent="1" vertex="1">
          <mxGeometry x="862.5" y="150" width="50" height="20" as="geometry" />
        </mxCell>
        <mxCell id="xZ-QIQwsPO3p9iyDY6K0-97" value="学生" style="text;html=1;align=center;verticalAlign=middle;resizable=0;points=[];autosize=1;" parent="1" vertex="1">
          <mxGeometry x="347.5" y="190" width="40" height="20" as="geometry" />
        </mxCell>
        <mxCell id="xZ-QIQwsPO3p9iyDY6K0-98" value="资金系统" style="ellipse;whiteSpace=wrap;html=1;" parent="1" vertex="1">
          <mxGeometry x="557.5" y="210" width="122.5" height="40" as="geometry" />
        </mxCell>
        <mxCell id="xZ-QIQwsPO3p9iyDY6K0-112" style="edgeStyle=none;rounded=1;orthogonalLoop=1;jettySize=auto;html=1;exitX=0;exitY=0.3333333333333333;exitDx=0;exitDy=0;exitPerimeter=0;entryX=1;entryY=0.5;entryDx=0;entryDy=0;" parent="1" source="xZ-QIQwsPO3p9iyDY6K0-110" target="xZ-QIQwsPO3p9iyDY6K0-98" edge="1">
          <mxGeometry relative="1" as="geometry" />
        </mxCell>
        <mxCell id="xZ-QIQwsPO3p9iyDY6K0-113" style="edgeStyle=none;rounded=1;orthogonalLoop=1;jettySize=auto;html=1;exitX=0;exitY=0.3333333333333333;exitDx=0;exitDy=0;exitPerimeter=0;entryX=1.007;entryY=0.6;entryDx=0;entryDy=0;entryPerimeter=0;" parent="1" source="xZ-QIQwsPO3p9iyDY6K0-110" target="xZ-QIQwsPO3p9iyDY6K0-54" edge="1">
          <mxGeometry relative="1" as="geometry" />
        </mxCell>
        <mxCell id="xZ-QIQwsPO3p9iyDY6K0-110" value="Actor" style="shape=umlActor;verticalLabelPosition=bottom;labelBackgroundColor=#ffffff;verticalAlign=top;html=1;" parent="1" vertex="1">
          <mxGeometry x="847.5" y="200" width="50" height="50" as="geometry" />
        </mxCell>
        <mxCell id="xZ-QIQwsPO3p9iyDY6K0-111" value="商家" style="text;html=1;align=center;verticalAlign=middle;resizable=0;points=[];autosize=1;" parent="1" vertex="1">
          <mxGeometry x="852.5" y="270" width="40" height="20" as="geometry" />
        </mxCell>
        <mxCell id="xZ-QIQwsPO3p9iyDY6K0-156" style="edgeStyle=none;rounded=1;orthogonalLoop=1;jettySize=auto;html=1;exitX=1;exitY=0.3333333333333333;exitDx=0;exitDy=0;exitPerimeter=0;entryX=0;entryY=0.5;entryDx=0;entryDy=0;" parent="1" source="xZ-QIQwsPO3p9iyDY6K0-115" target="xZ-QIQwsPO3p9iyDY6K0-129" edge="1">
          <mxGeometry relative="1" as="geometry" />
        </mxCell>
        <mxCell id="xZ-QIQwsPO3p9iyDY6K0-157" style="edgeStyle=none;rounded=1;orthogonalLoop=1;jettySize=auto;html=1;exitX=1;exitY=0.3333333333333333;exitDx=0;exitDy=0;exitPerimeter=0;entryX=0;entryY=0.5;entryDx=0;entryDy=0;" parent="1" source="xZ-QIQwsPO3p9iyDY6K0-115" target="xZ-QIQwsPO3p9iyDY6K0-155" edge="1">
          <mxGeometry relative="1" as="geometry" />
        </mxCell>
        <mxCell id="xZ-QIQwsPO3p9iyDY6K0-115" value="Actor" style="shape=umlActor;verticalLabelPosition=bottom;labelBackgroundColor=#ffffff;verticalAlign=top;html=1;" parent="1" vertex="1">
          <mxGeometry x="395" y="390" width="30" height="60" as="geometry" />
        </mxCell>
        <mxCell id="xZ-QIQwsPO3p9iyDY6K0-122" value="学生" style="text;html=1;align=center;verticalAlign=middle;resizable=0;points=[];autosize=1;" parent="1" vertex="1">
          <mxGeometry x="390" y="480" width="40" height="20" as="geometry" />
        </mxCell>
        <mxCell id="xZ-QIQwsPO3p9iyDY6K0-123" value="frame" style="shape=umlFrame;whiteSpace=wrap;html=1;" parent="1" vertex="1">
          <mxGeometry x="480" y="330" width="250" height="320" as="geometry" />
        </mxCell>
        <mxCell id="xZ-QIQwsPO3p9iyDY6K0-124" value="学生信息审核" style="ellipse;whiteSpace=wrap;html=1;" parent="1" vertex="1">
          <mxGeometry x="550" y="390" width="80" height="30" as="geometry" />
        </mxCell>
        <mxCell id="xZ-QIQwsPO3p9iyDY6K0-125" value="卡片制作" style="ellipse;whiteSpace=wrap;html=1;" parent="1" vertex="1">
          <mxGeometry x="545" y="430" width="80" height="30" as="geometry" />
        </mxCell>
        <mxCell id="xZ-QIQwsPO3p9iyDY6K0-126" value="卡片信息" style="ellipse;whiteSpace=wrap;html=1;" parent="1" vertex="1">
          <mxGeometry x="550" y="510" width="80" height="30" as="geometry" />
        </mxCell>
        <mxCell id="xZ-QIQwsPO3p9iyDY6K0-127" value="统计报表" style="ellipse;whiteSpace=wrap;html=1;" parent="1" vertex="1">
          <mxGeometry x="550" y="550" width="80" height="30" as="geometry" />
        </mxCell>
        <mxCell id="xZ-QIQwsPO3p9iyDY6K0-128" value="学生信息录入" style="ellipse;whiteSpace=wrap;html=1;" parent="1" vertex="1">
          <mxGeometry x="545" y="470" width="80" height="30" as="geometry" />
        </mxCell>
        <mxCell id="xZ-QIQwsPO3p9iyDY6K0-129" value="申请" style="ellipse;whiteSpace=wrap;html=1;" parent="1" vertex="1">
          <mxGeometry x="545" y="350" width="80" height="30" as="geometry" />
        </mxCell>
        <mxCell id="xZ-QIQwsPO3p9iyDY6K0-137" style="edgeStyle=none;rounded=1;orthogonalLoop=1;jettySize=auto;html=1;exitX=1;exitY=0.3333333333333333;exitDx=0;exitDy=0;exitPerimeter=0;entryX=0;entryY=0.5;entryDx=0;entryDy=0;" parent="1" source="xZ-QIQwsPO3p9iyDY6K0-136" target="xZ-QIQwsPO3p9iyDY6K0-54" edge="1">
          <mxGeometry relative="1" as="geometry" />
        </mxCell>
        <mxCell id="xZ-QIQwsPO3p9iyDY6K0-140" style="edgeStyle=none;rounded=1;orthogonalLoop=1;jettySize=auto;html=1;exitX=1;exitY=0.3333333333333333;exitDx=0;exitDy=0;exitPerimeter=0;" parent="1" source="xZ-QIQwsPO3p9iyDY6K0-136" target="xZ-QIQwsPO3p9iyDY6K0-66" edge="1">
          <mxGeometry relative="1" as="geometry" />
        </mxCell>
        <mxCell id="xZ-QIQwsPO3p9iyDY6K0-141" style="edgeStyle=none;rounded=1;orthogonalLoop=1;jettySize=auto;html=1;entryX=0.026;entryY=0.7;entryDx=0;entryDy=0;entryPerimeter=0;exitX=1;exitY=0.3333333333333333;exitDx=0;exitDy=0;exitPerimeter=0;" parent="1" source="xZ-QIQwsPO3p9iyDY6K0-136" target="xZ-QIQwsPO3p9iyDY6K0-69" edge="1">
          <mxGeometry relative="1" as="geometry">
            <mxPoint x="397.5" y="120" as="sourcePoint" />
          </mxGeometry>
        </mxCell>
        <mxCell id="xZ-QIQwsPO3p9iyDY6K0-142" style="edgeStyle=none;rounded=1;orthogonalLoop=1;jettySize=auto;html=1;exitX=1;exitY=0.3333333333333333;exitDx=0;exitDy=0;exitPerimeter=0;entryX=0;entryY=0.5;entryDx=0;entryDy=0;" parent="1" source="xZ-QIQwsPO3p9iyDY6K0-136" target="xZ-QIQwsPO3p9iyDY6K0-98" edge="1">
          <mxGeometry relative="1" as="geometry" />
        </mxCell>
        <mxCell id="xZ-QIQwsPO3p9iyDY6K0-136" value="Actor" style="shape=umlActor;verticalLabelPosition=bottom;labelBackgroundColor=#ffffff;verticalAlign=top;html=1;align=center;fontStyle=0" parent="1" vertex="1">
          <mxGeometry x="347.5" y="100" width="40" height="60" as="geometry" />
        </mxCell>
        <mxCell id="xZ-QIQwsPO3p9iyDY6K0-146" style="edgeStyle=none;rounded=1;orthogonalLoop=1;jettySize=auto;html=1;exitX=0.5;exitY=1;exitDx=0;exitDy=0;" parent="1" source="xZ-QIQwsPO3p9iyDY6K0-129" target="xZ-QIQwsPO3p9iyDY6K0-129" edge="1">
          <mxGeometry relative="1" as="geometry" />
        </mxCell>
        <mxCell id="xZ-QIQwsPO3p9iyDY6K0-150" style="edgeStyle=none;rounded=1;orthogonalLoop=1;jettySize=auto;html=1;exitX=0.5;exitY=1;exitDx=0;exitDy=0;" parent="1" source="xZ-QIQwsPO3p9iyDY6K0-128" target="xZ-QIQwsPO3p9iyDY6K0-128" edge="1">
          <mxGeometry relative="1" as="geometry" />
        </mxCell>
        <mxCell id="xZ-QIQwsPO3p9iyDY6K0-151" style="edgeStyle=none;rounded=1;orthogonalLoop=1;jettySize=auto;html=1;exitX=0.5;exitY=1;exitDx=0;exitDy=0;" parent="1" source="xZ-QIQwsPO3p9iyDY6K0-124" target="xZ-QIQwsPO3p9iyDY6K0-124" edge="1">
          <mxGeometry relative="1" as="geometry" />
        </mxCell>
        <mxCell id="xZ-QIQwsPO3p9iyDY6K0-152" style="edgeStyle=none;rounded=1;orthogonalLoop=1;jettySize=auto;html=1;exitX=0.5;exitY=1;exitDx=0;exitDy=0;" parent="1" source="xZ-QIQwsPO3p9iyDY6K0-129" target="xZ-QIQwsPO3p9iyDY6K0-129" edge="1">
          <mxGeometry relative="1" as="geometry" />
        </mxCell>
        <mxCell id="xZ-QIQwsPO3p9iyDY6K0-155" value="锁卡" style="ellipse;whiteSpace=wrap;html=1;" parent="1" vertex="1">
          <mxGeometry x="555" y="590" width="80" height="30" as="geometry" />
        </mxCell>
        <mxCell id="xZ-QIQwsPO3p9iyDY6K0-169" style="edgeStyle=none;rounded=1;orthogonalLoop=1;jettySize=auto;html=1;exitX=0;exitY=0.3333333333333333;exitDx=0;exitDy=0;exitPerimeter=0;entryX=1;entryY=0.5;entryDx=0;entryDy=0;" parent="1" source="xZ-QIQwsPO3p9iyDY6K0-158" target="xZ-QIQwsPO3p9iyDY6K0-124" edge="1">
          <mxGeometry relative="1" as="geometry" />
        </mxCell>
        <mxCell id="xZ-QIQwsPO3p9iyDY6K0-170" style="edgeStyle=none;rounded=1;orthogonalLoop=1;jettySize=auto;html=1;entryX=1;entryY=0.5;entryDx=0;entryDy=0;" parent="1" target="xZ-QIQwsPO3p9iyDY6K0-125" edge="1">
          <mxGeometry relative="1" as="geometry">
            <mxPoint x="830" y="370" as="sourcePoint" />
          </mxGeometry>
        </mxCell>
        <mxCell id="xZ-QIQwsPO3p9iyDY6K0-171" style="edgeStyle=none;rounded=1;orthogonalLoop=1;jettySize=auto;html=1;entryX=1;entryY=0.5;entryDx=0;entryDy=0;" parent="1" target="xZ-QIQwsPO3p9iyDY6K0-128" edge="1">
          <mxGeometry relative="1" as="geometry">
            <mxPoint x="830" y="370" as="sourcePoint" />
          </mxGeometry>
        </mxCell>
        <mxCell id="xZ-QIQwsPO3p9iyDY6K0-172" style="edgeStyle=none;rounded=1;orthogonalLoop=1;jettySize=auto;html=1;entryX=1;entryY=0.5;entryDx=0;entryDy=0;" parent="1" target="xZ-QIQwsPO3p9iyDY6K0-127" edge="1">
          <mxGeometry relative="1" as="geometry">
            <mxPoint x="830" y="370" as="sourcePoint" />
          </mxGeometry>
        </mxCell>
        <mxCell id="xZ-QIQwsPO3p9iyDY6K0-173" style="edgeStyle=none;rounded=1;orthogonalLoop=1;jettySize=auto;html=1;exitX=0;exitY=0.3333333333333333;exitDx=0;exitDy=0;exitPerimeter=0;entryX=1;entryY=0.5;entryDx=0;entryDy=0;" parent="1" source="xZ-QIQwsPO3p9iyDY6K0-158" target="xZ-QIQwsPO3p9iyDY6K0-155" edge="1">
          <mxGeometry relative="1" as="geometry" />
        </mxCell>
        <mxCell id="xZ-QIQwsPO3p9iyDY6K0-158" value="Actor" style="shape=umlActor;verticalLabelPosition=bottom;labelBackgroundColor=#ffffff;verticalAlign=top;html=1;align=center;" parent="1" vertex="1">
          <mxGeometry x="833" y="350" width="30" height="60" as="geometry" />
        </mxCell>
        <mxCell id="xZ-QIQwsPO3p9iyDY6K0-168" style="edgeStyle=none;rounded=1;orthogonalLoop=1;jettySize=auto;html=1;exitX=0;exitY=0.3333333333333333;exitDx=0;exitDy=0;exitPerimeter=0;entryX=0.6;entryY=0.625;entryDx=0;entryDy=0;entryPerimeter=0;" parent="1" source="xZ-QIQwsPO3p9iyDY6K0-159" target="xZ-QIQwsPO3p9iyDY6K0-123" edge="1">
          <mxGeometry relative="1" as="geometry" />
        </mxCell>
        <mxCell id="xZ-QIQwsPO3p9iyDY6K0-159" value="Actor" style="shape=umlActor;verticalLabelPosition=bottom;labelBackgroundColor=#ffffff;verticalAlign=top;html=1;align=center;" parent="1" vertex="1">
          <mxGeometry x="832.5" y="520" width="30" height="60" as="geometry" />
        </mxCell>
        <mxCell id="xZ-QIQwsPO3p9iyDY6K0-162" value="管理员" style="text;html=1;align=center;verticalAlign=middle;resizable=0;points=[];autosize=1;" parent="1" vertex="1">
          <mxGeometry x="823" y="435" width="50" height="20" as="geometry" />
        </mxCell>
        <mxCell id="xZ-QIQwsPO3p9iyDY6K0-167" value="商家" style="text;html=1;align=center;verticalAlign=middle;resizable=0;points=[];autosize=1;" parent="1" vertex="1">
          <mxGeometry x="828" y="610" width="40" height="20" as="geometry" />
        </mxCell>
        <mxCell id="xZ-QIQwsPO3p9iyDY6K0-174" value="卡片系统细化" style="text;html=1;strokeColor=none;fillColor=none;align=center;verticalAlign=middle;whiteSpace=wrap;rounded=0;" parent="1" vertex="1">
          <mxGeometry x="525" y="300" width="110" height="30" as="geometry" />
        </mxCell>
        <mxCell id="xZ-QIQwsPO3p9iyDY6K0-176" value="整理概况" style="text;html=1;strokeColor=none;fillColor=none;align=center;verticalAlign=middle;whiteSpace=wrap;rounded=0;" parent="1" vertex="1">
          <mxGeometry x="510" y="-20" width="180" height="40" as="geometry" />
        </mxCell>
        <mxCell id="xZ-QIQwsPO3p9iyDY6K0-177" style="edgeStyle=none;rounded=1;orthogonalLoop=1;jettySize=auto;html=1;exitX=1;exitY=0.3333333333333333;exitDx=0;exitDy=0;exitPerimeter=0;entryX=0;entryY=0.5;entryDx=0;entryDy=0;" parent="1" source="xZ-QIQwsPO3p9iyDY6K0-179" target="xZ-QIQwsPO3p9iyDY6K0-187" edge="1">
          <mxGeometry relative="1" as="geometry" />
        </mxCell>
        <mxCell id="xZ-QIQwsPO3p9iyDY6K0-206" style="edgeStyle=none;rounded=1;orthogonalLoop=1;jettySize=auto;html=1;exitX=1;exitY=0.3333333333333333;exitDx=0;exitDy=0;exitPerimeter=0;entryX=0;entryY=0.5;entryDx=0;entryDy=0;" parent="1" source="xZ-QIQwsPO3p9iyDY6K0-179" target="xZ-QIQwsPO3p9iyDY6K0-183" edge="1">
          <mxGeometry relative="1" as="geometry" />
        </mxCell>
        <mxCell id="xZ-QIQwsPO3p9iyDY6K0-207" style="edgeStyle=none;rounded=1;orthogonalLoop=1;jettySize=auto;html=1;exitX=1;exitY=0.3333333333333333;exitDx=0;exitDy=0;exitPerimeter=0;entryX=0;entryY=0.5;entryDx=0;entryDy=0;" parent="1" source="xZ-QIQwsPO3p9iyDY6K0-179" target="xZ-QIQwsPO3p9iyDY6K0-186" edge="1">
          <mxGeometry relative="1" as="geometry" />
        </mxCell>
        <mxCell id="xZ-QIQwsPO3p9iyDY6K0-179" value="Actor" style="shape=umlActor;verticalLabelPosition=bottom;labelBackgroundColor=#ffffff;verticalAlign=top;html=1;" parent="1" vertex="1">
          <mxGeometry x="392.5" y="770" width="30" height="60" as="geometry" />
        </mxCell>
        <mxCell id="xZ-QIQwsPO3p9iyDY6K0-180" value="学生" style="text;html=1;align=center;verticalAlign=middle;resizable=0;points=[];autosize=1;" parent="1" vertex="1">
          <mxGeometry x="387.5" y="860" width="40" height="20" as="geometry" />
        </mxCell>
        <mxCell id="xZ-QIQwsPO3p9iyDY6K0-181" value="frame" style="shape=umlFrame;whiteSpace=wrap;html=1;" parent="1" vertex="1">
          <mxGeometry x="477.5" y="710" width="226.5" height="270" as="geometry" />
        </mxCell>
        <mxCell id="xZ-QIQwsPO3p9iyDY6K0-182" value="扣款" style="ellipse;whiteSpace=wrap;html=1;" parent="1" vertex="1">
          <mxGeometry x="547.5" y="800" width="80" height="30" as="geometry" />
        </mxCell>
        <mxCell id="xZ-QIQwsPO3p9iyDY6K0-183" value="流水明细" style="ellipse;whiteSpace=wrap;html=1;" parent="1" vertex="1">
          <mxGeometry x="547.5" y="835" width="80" height="30" as="geometry" />
        </mxCell>
        <mxCell id="xZ-QIQwsPO3p9iyDY6K0-185" value="统计报表" style="ellipse;whiteSpace=wrap;html=1;" parent="1" vertex="1">
          <mxGeometry x="542.5" y="930" width="80" height="30" as="geometry" />
        </mxCell>
        <mxCell id="xZ-QIQwsPO3p9iyDY6K0-186" value="余额" style="ellipse;whiteSpace=wrap;html=1;" parent="1" vertex="1">
          <mxGeometry x="547.5" y="880" width="80" height="30" as="geometry" />
        </mxCell>
        <mxCell id="xZ-QIQwsPO3p9iyDY6K0-187" value="充值" style="ellipse;whiteSpace=wrap;html=1;" parent="1" vertex="1">
          <mxGeometry x="547.5" y="760" width="80" height="30" as="geometry" />
        </mxCell>
        <mxCell id="xZ-QIQwsPO3p9iyDY6K0-188" style="edgeStyle=none;rounded=1;orthogonalLoop=1;jettySize=auto;html=1;exitX=0.5;exitY=1;exitDx=0;exitDy=0;" parent="1" source="xZ-QIQwsPO3p9iyDY6K0-187" target="xZ-QIQwsPO3p9iyDY6K0-187" edge="1">
          <mxGeometry relative="1" as="geometry" />
        </mxCell>
        <mxCell id="xZ-QIQwsPO3p9iyDY6K0-189" style="edgeStyle=none;rounded=1;orthogonalLoop=1;jettySize=auto;html=1;exitX=0.5;exitY=1;exitDx=0;exitDy=0;" parent="1" source="xZ-QIQwsPO3p9iyDY6K0-186" target="xZ-QIQwsPO3p9iyDY6K0-186" edge="1">
          <mxGeometry relative="1" as="geometry" />
        </mxCell>
        <mxCell id="xZ-QIQwsPO3p9iyDY6K0-190" style="edgeStyle=none;rounded=1;orthogonalLoop=1;jettySize=auto;html=1;exitX=0.5;exitY=1;exitDx=0;exitDy=0;" parent="1" source="xZ-QIQwsPO3p9iyDY6K0-182" target="xZ-QIQwsPO3p9iyDY6K0-182" edge="1">
          <mxGeometry relative="1" as="geometry" />
        </mxCell>
        <mxCell id="xZ-QIQwsPO3p9iyDY6K0-191" style="edgeStyle=none;rounded=1;orthogonalLoop=1;jettySize=auto;html=1;exitX=0.5;exitY=1;exitDx=0;exitDy=0;" parent="1" source="xZ-QIQwsPO3p9iyDY6K0-187" target="xZ-QIQwsPO3p9iyDY6K0-187" edge="1">
          <mxGeometry relative="1" as="geometry" />
        </mxCell>
        <mxCell id="xZ-QIQwsPO3p9iyDY6K0-194" style="edgeStyle=none;rounded=1;orthogonalLoop=1;jettySize=auto;html=1;entryX=1;entryY=0.5;entryDx=0;entryDy=0;" parent="1" target="xZ-QIQwsPO3p9iyDY6K0-183" edge="1">
          <mxGeometry relative="1" as="geometry">
            <mxPoint x="827.5" y="750" as="sourcePoint" />
          </mxGeometry>
        </mxCell>
        <mxCell id="xZ-QIQwsPO3p9iyDY6K0-195" style="edgeStyle=none;rounded=1;orthogonalLoop=1;jettySize=auto;html=1;entryX=1;entryY=0.5;entryDx=0;entryDy=0;" parent="1" target="xZ-QIQwsPO3p9iyDY6K0-186" edge="1">
          <mxGeometry relative="1" as="geometry">
            <mxPoint x="827.5" y="750" as="sourcePoint" />
          </mxGeometry>
        </mxCell>
        <mxCell id="xZ-QIQwsPO3p9iyDY6K0-196" style="edgeStyle=none;rounded=1;orthogonalLoop=1;jettySize=auto;html=1;entryX=1;entryY=0.5;entryDx=0;entryDy=0;" parent="1" target="xZ-QIQwsPO3p9iyDY6K0-185" edge="1">
          <mxGeometry relative="1" as="geometry">
            <mxPoint x="827.5" y="750" as="sourcePoint" />
          </mxGeometry>
        </mxCell>
        <mxCell id="xZ-QIQwsPO3p9iyDY6K0-205" style="edgeStyle=none;rounded=1;orthogonalLoop=1;jettySize=auto;html=1;entryX=1;entryY=0.5;entryDx=0;entryDy=0;" parent="1" target="xZ-QIQwsPO3p9iyDY6K0-204" edge="1">
          <mxGeometry relative="1" as="geometry">
            <mxPoint x="824" y="750" as="sourcePoint" />
          </mxGeometry>
        </mxCell>
        <mxCell id="xZ-QIQwsPO3p9iyDY6K0-208" style="edgeStyle=none;rounded=1;orthogonalLoop=1;jettySize=auto;html=1;exitX=0;exitY=0.3333333333333333;exitDx=0;exitDy=0;exitPerimeter=0;entryX=1;entryY=0.5;entryDx=0;entryDy=0;" parent="1" source="xZ-QIQwsPO3p9iyDY6K0-198" target="xZ-QIQwsPO3p9iyDY6K0-187" edge="1">
          <mxGeometry relative="1" as="geometry" />
        </mxCell>
        <mxCell id="xZ-QIQwsPO3p9iyDY6K0-198" value="Actor" style="shape=umlActor;verticalLabelPosition=bottom;labelBackgroundColor=#ffffff;verticalAlign=top;html=1;align=center;" parent="1" vertex="1">
          <mxGeometry x="830.5" y="730" width="30" height="60" as="geometry" />
        </mxCell>
        <mxCell id="xZ-QIQwsPO3p9iyDY6K0-209" style="edgeStyle=none;rounded=1;orthogonalLoop=1;jettySize=auto;html=1;exitX=0;exitY=0.3333333333333333;exitDx=0;exitDy=0;exitPerimeter=0;entryX=1;entryY=0.5;entryDx=0;entryDy=0;" parent="1" source="xZ-QIQwsPO3p9iyDY6K0-200" target="xZ-QIQwsPO3p9iyDY6K0-182" edge="1">
          <mxGeometry relative="1" as="geometry" />
        </mxCell>
        <mxCell id="xZ-QIQwsPO3p9iyDY6K0-200" value="Actor" style="shape=umlActor;verticalLabelPosition=bottom;labelBackgroundColor=#ffffff;verticalAlign=top;html=1;align=center;" parent="1" vertex="1">
          <mxGeometry x="825.5" y="870" width="30" height="60" as="geometry" />
        </mxCell>
        <mxCell id="xZ-QIQwsPO3p9iyDY6K0-201" value="管理员" style="text;html=1;align=center;verticalAlign=middle;resizable=0;points=[];autosize=1;" parent="1" vertex="1">
          <mxGeometry x="820.5" y="815" width="50" height="20" as="geometry" />
        </mxCell>
        <mxCell id="xZ-QIQwsPO3p9iyDY6K0-202" value="商家" style="text;html=1;align=center;verticalAlign=middle;resizable=0;points=[];autosize=1;" parent="1" vertex="1">
          <mxGeometry x="825.5" y="950" width="40" height="20" as="geometry" />
        </mxCell>
        <mxCell id="xZ-QIQwsPO3p9iyDY6K0-203" value="资金系统细化" style="text;html=1;strokeColor=none;fillColor=none;align=center;verticalAlign=middle;whiteSpace=wrap;rounded=0;" parent="1" vertex="1">
          <mxGeometry x="539" y="680" width="110" height="30" as="geometry" />
        </mxCell>
        <mxCell id="xZ-QIQwsPO3p9iyDY6K0-204" value="信息验证" style="ellipse;whiteSpace=wrap;html=1;" parent="1" vertex="1">
          <mxGeometry x="542.5" y="720" width="80" height="30" as="geometry" />
        </mxCell>
      </root>
    </mxGraphModel>
  </diagram>
</mxfile>
